<svg width="178" height="48" viewBox="0 0 178 48" fill="none" xmlns="http://www.w3.org/2000/svg">
<path d="M17.2 37.3333C16.9334 37.3333 16.6778 37.2944 16.4334 37.2167C16.1889 37.1389 15.9556 36.9889 15.7334 36.7667L3.23335 24.2667C3.01113 24.0444 2.86113 23.8111 2.78335 23.5667C2.70558 23.3222 2.66669 23.0667 2.66669 22.8V12.6667C2.66669 12.0889 2.85558 11.6111 3.23335 11.2333C3.61113 10.8555 4.08891 10.6667 4.66669 10.6667H14.8C15.0667 10.6667 15.3334 10.7055 15.6 10.7833C15.8667 10.8611 16.1111 11.0111 16.3334 11.2333L28.7667 23.6667C29.2111 24.1111 29.4334 24.6055 29.4334 25.15C29.4334 25.6944 29.2111 26.1889 28.7667 26.6333L18.6334 36.7667C18.4556 36.9444 18.2389 37.0833 17.9834 37.1833C17.7278 37.2833 17.4667 37.3333 17.2 37.3333ZM17.2667 35.4L27.4 25.2667L14.8 12.6667H4.66669V22.8L17.2667 35.4ZM8.16669 17.8667C8.63335 17.8667 9.03891 17.6944 9.38335 17.35C9.7278 17.0055 9.90002 16.6 9.90002 16.1333C9.90002 15.6667 9.7278 15.2611 9.38335 14.9167C9.03891 14.5722 8.63335 14.4 8.16669 14.4C7.70002 14.4 7.29446 14.5722 6.95002 14.9167C6.60558 15.2611 6.43335 15.6667 6.43335 16.1333C6.43335 16.6 6.60558 17.0055 6.95002 17.35C7.29446 17.6944 7.70002 17.8667 8.16669 17.8667V17.8667Z" fill=""/>
<path d="M40.5781 38V15.7812H37.3125V10.5H49.3438V15.7812H46.0781V38H40.5781ZM50.75 13.125V8.46875H56.3438V13.125H50.75ZM50.75 38V14.5625H56.3438V38H50.75ZM65.6094 38.25C62.9844 38.25 61.1198 37.5781 60.0156 36.2344C58.9219 34.8906 58.375 32.9167 58.375 30.3125V23.0938C58.375 21.1354 58.5833 19.5052 59 18.2031C59.4167 16.901 60.1458 15.9271 61.1875 15.2812C62.2292 14.6354 63.6771 14.3125 65.5312 14.3125C66.8229 14.3125 67.9792 14.5417 69 15C70.0312 15.4583 70.8438 16.1302 71.4375 17.0156C72.0312 17.901 72.3281 18.9844 72.3281 20.2656V23.8438H66.625V20.5625C66.625 20.0208 66.5469 19.5677 66.3906 19.2031C66.2344 18.8281 65.8958 18.6406 65.375 18.6406C64.4583 18.6406 64 19.2917 64 20.5938V31.9531C64 32.4323 64.1042 32.875 64.3125 33.2812C64.5208 33.6771 64.8646 33.875 65.3438 33.875C65.8333 33.875 66.1719 33.6823 66.3594 33.2969C66.5573 32.901 66.6562 32.4427 66.6562 31.9219V27.9844H72.3281V32.0781C72.3281 33.3698 72.0365 34.4792 71.4531 35.4062C70.8802 36.3229 70.0885 37.026 69.0781 37.5156C68.0677 38.0052 66.9115 38.25 65.6094 38.25ZM74.2812 38V10.5H79.8125V22.6406L82.5 14.5625H88.2969L84.7812 24.75L89.25 38H83.2969L79.8125 26.9531V38H74.2812ZM96.5625 38.25C94.8958 38.25 93.5677 37.9375 92.5781 37.3125C91.5885 36.6875 90.8802 35.7865 90.4531 34.6094C90.026 33.4323 89.8125 32.0156 89.8125 30.3594V20.9375C89.8125 18.7604 90.4375 17.1146 91.6875 16C92.9375 14.875 94.6562 14.3125 96.8438 14.3125C101.344 14.3125 103.594 16.5208 103.594 20.9375V22.6406C103.594 24.7031 103.573 26.0885 103.531 26.7969H95.4062V31.3281C95.4062 31.7448 95.4323 32.1562 95.4844 32.5625C95.5365 32.9583 95.651 33.2865 95.8281 33.5469C96.0156 33.8073 96.3125 33.9375 96.7188 33.9375C97.3021 33.9375 97.6667 33.6875 97.8125 33.1875C97.9583 32.6771 98.0312 32.0156 98.0312 31.2031V28.9531H103.594V30.2812C103.594 32.0312 103.375 33.5 102.938 34.6875C102.51 35.8646 101.781 36.7552 100.75 37.3594C99.7292 37.9531 98.3333 38.25 96.5625 38.25ZM95.375 24.0156H98.0312V20.8594C98.0312 20.0156 97.9271 19.4115 97.7188 19.0469C97.5104 18.6719 97.1979 18.4844 96.7812 18.4844C96.3333 18.4844 95.9844 18.6615 95.7344 19.0156C95.4948 19.3698 95.375 19.9844 95.375 20.8594V24.0156ZM110.438 38.25C108.927 38.25 107.906 37.9323 107.375 37.2969C106.854 36.651 106.594 35.6667 106.594 34.3438V19.7344H105.016V15.4688H106.594V10.5H112.031V15.4688H113.609V19.7344H112.031V33.0312C112.031 33.4167 112.094 33.6875 112.219 33.8438C112.344 34 112.583 34.0781 112.938 34.0781C113.188 34.0781 113.411 34.0573 113.609 34.0156V37.8281C113.484 37.8698 113.094 37.9479 112.438 38.0625C111.781 38.1875 111.115 38.25 110.438 38.25ZM122.031 38.25C119.521 38.25 117.708 37.625 116.594 36.375C115.49 35.125 114.938 33.1354 114.938 30.4062V27.7188H120.375V31.1562C120.375 31.7917 120.469 32.2917 120.656 32.6562C120.854 33.0104 121.193 33.1875 121.672 33.1875C122.172 33.1875 122.516 33.0417 122.703 32.75C122.901 32.4583 123 31.9792 123 31.3125C123 30.4688 122.917 29.7656 122.75 29.2031C122.583 28.6302 122.292 28.0885 121.875 27.5781C121.469 27.0573 120.901 26.4531 120.172 25.7656L117.703 23.4219C115.859 21.6823 114.938 19.6927 114.938 17.4531C114.938 15.1094 115.479 13.3229 116.562 12.0938C117.656 10.8646 119.234 10.25 121.297 10.25C123.818 10.25 125.604 10.9219 126.656 12.2656C127.719 13.6094 128.25 15.651 128.25 18.3906H122.656V16.5C122.656 16.125 122.547 15.8333 122.328 15.625C122.12 15.4167 121.833 15.3125 121.469 15.3125C121.031 15.3125 120.708 15.4375 120.5 15.6875C120.302 15.9271 120.203 16.2396 120.203 16.625C120.203 17.0104 120.307 17.4271 120.516 17.875C120.724 18.3229 121.135 18.8385 121.75 19.4219L124.922 22.4688C125.557 23.0729 126.141 23.7135 126.672 24.3906C127.203 25.0573 127.63 25.8385 127.953 26.7344C128.276 27.6198 128.438 28.7031 128.438 29.9844C128.438 32.5677 127.958 34.5938 127 36.0625C126.052 37.5208 124.396 38.25 122.031 38.25ZM130.188 38V10.5H135.938V16.8906C136.24 16.0156 136.703 15.3698 137.328 14.9531C137.953 14.526 138.682 14.3125 139.516 14.3125C141.141 14.3125 142.323 14.8229 143.062 15.8438C143.802 16.8646 144.172 18.2344 144.172 19.9531V38H138.516V20.3125C138.516 19.8021 138.406 19.3854 138.188 19.0625C137.979 18.7396 137.646 18.5781 137.188 18.5781C136.802 18.5781 136.495 18.7448 136.266 19.0781C136.047 19.4115 135.938 19.8073 135.938 20.2656V38H130.188ZM153.188 38.25C148.521 38.25 146.188 35.8281 146.188 30.9844V21.5781C146.188 19.3698 146.807 17.6094 148.047 16.2969C149.286 14.974 151 14.3125 153.188 14.3125C155.385 14.3125 157.104 14.974 158.344 16.2969C159.583 17.6094 160.203 19.3698 160.203 21.5781V30.9844C160.203 35.8281 157.865 38.25 153.188 38.25ZM153.188 33.9375C153.656 33.9375 153.99 33.7708 154.188 33.4375C154.396 33.0938 154.5 32.6615 154.5 32.1406V20.6875C154.5 19.3229 154.062 18.6406 153.188 18.6406C152.312 18.6406 151.875 19.3229 151.875 20.6875V32.1406C151.875 32.6615 151.974 33.0938 152.172 33.4375C152.38 33.7708 152.719 33.9375 153.188 33.9375ZM162.281 41.9062V14.5625H167.969V17.0625C168.312 16.1979 168.786 15.526 169.391 15.0469C170.005 14.5573 170.88 14.3125 172.016 14.3125C173.547 14.3125 174.625 14.8698 175.25 15.9844C175.885 17.099 176.203 18.5573 176.203 20.3594V31.8906C176.203 33.0885 176.031 34.1719 175.688 35.1406C175.354 36.099 174.823 36.8594 174.094 37.4219C173.375 37.974 172.432 38.25 171.266 38.25C169.745 38.25 168.646 37.3333 167.969 35.5V41.9062H162.281ZM169.297 33.8906C169.88 33.8906 170.229 33.599 170.344 33.0156C170.469 32.4323 170.531 31.7135 170.531 30.8594V21.7031C170.531 20.8385 170.469 20.1198 170.344 19.5469C170.229 18.9635 169.88 18.6719 169.297 18.6719C168.693 18.6719 168.318 18.9688 168.172 19.5625C168.036 20.1458 167.969 20.8594 167.969 21.7031V30.8594C167.969 31.7031 168.036 32.4219 168.172 33.0156C168.318 33.599 168.693 33.8906 169.297 33.8906Z" fill=""/>
</svg>
