<svg width="32" height="32" viewBox="0 0 32 32" fill="none" xmlns="http://www.w3.org/2000/svg">
<path d="M17.2 29.3333C16.9334 29.3333 16.6778 29.2944 16.4334 29.2167C16.1889 29.1389 15.9556 28.9889 15.7334 28.7667L3.23335 16.2667C3.01113 16.0444 2.86113 15.8111 2.78335 15.5667C2.70558 15.3222 2.66669 15.0667 2.66669 14.8V4.66666C2.66669 4.08888 2.85558 3.6111 3.23335 3.23332C3.61113 2.85555 4.08891 2.66666 4.66669 2.66666H14.8C15.0667 2.66666 15.3334 2.70555 15.6 2.78332C15.8667 2.8611 16.1111 3.0111 16.3334 3.23332L28.7667 15.6667C29.2111 16.1111 29.4334 16.6055 29.4334 17.15C29.4334 17.6944 29.2111 18.1889 28.7667 18.6333L18.6334 28.7667C18.4556 28.9444 18.2389 29.0833 17.9834 29.1833C17.7278 29.2833 17.4667 29.3333 17.2 29.3333ZM17.2667 27.4L27.4 17.2667L14.8 4.66666H4.66669V14.8L17.2667 27.4ZM8.16669 9.86666C8.63335 9.86666 9.03891 9.69443 9.38335 9.34999C9.7278 9.00555 9.90002 8.59999 9.90002 8.13332C9.90002 7.66666 9.7278 7.2611 9.38335 6.91666C9.03891 6.57221 8.63335 6.39999 8.16669 6.39999C7.70002 6.39999 7.29446 6.57221 6.95002 6.91666C6.60558 7.2611 6.43335 7.66666 6.43335 8.13332C6.43335 8.59999 6.60558 9.00555 6.95002 9.34999C7.29446 9.69443 7.70002 9.86666 8.16669 9.86666V9.86666Z" fill="#3375B3"/>
</svg>
